HIERARCHY
ROOT Hips
{
  OFFSET -331.093 83.8371 -317.828
  CHANNELS 6 Xposition Yposition Zposition Zrotation Xrotation Yrotation
  JOINT LeftUpLeg
  {
    OFFSET 8.64259 1.95398 -2.38835
    CHANNELS 3 Zrotation Xrotation Yrotation
    JOINT LeftLeg
    {
      OFFSET 43.7702 0 0
      CHANNELS 3 Zrotation Xrotation Yrotation
      JOINT LeftFoot
      {
        OFFSET 40.6238 0 0
        CHANNELS 3 Zrotation Xrotation Yrotation
        JOINT LeftToeBase
        {
          OFFSET 12.7242 0 0
          CHANNELS 3 Zrotation Xrotation Yrotation
          End Site
          {
            OFFSET 0 0 0
          }
        }
      }
    }
  }
  JOINT RightUpLeg
  {
    OFFSET -8.2249 1.95398 -2.59336
    CHANNELS 3 Zrotation Xrotation Yrotation
    JOINT RightLeg
    {
      OFFSET 43.5653 0 0
      CHANNELS 3 Zrotation Xrotation Yrotation
      JOINT RightFoot
      {
        OFFSET 40.6238 0 0
        CHANNELS 3 Zrotation Xrotation Yrotation
        JOINT RightToeBase
        {
          OFFSET 12.7242 0 0
          CHANNELS 3 Zrotation Xrotation Yrotation
          End Site
          {
            OFFSET 0 0 0
          }
        }
      }
    }
  }
  JOINT Spine
  {
    OFFSET 0.165834 0.87714 6.61349
    CHANNELS 3 Zrotation Xrotation Yrotation
    JOINT Spine1
    {
      OFFSET 7.38963 1.71661e-005 0
      CHANNELS 3 Zrotation Xrotation Yrotation
      JOINT Spine2
      {
        OFFSET 11.9445 1.14441e-005 0
        CHANNELS 3 Zrotation Xrotation Yrotation
        JOINT Spine3
        {
          OFFSET 14.7254 4.19617e-005 0
          CHANNELS 3 Zrotation Xrotation Yrotation
          JOINT Spine4
          {
            OFFSET 10.9679 0 0
            CHANNELS 3 Zrotation Xrotation Yrotation
            JOINT RightShoulder
            {
              OFFSET 2.46616 -1.6653 3.69651
              CHANNELS 3 Zrotation Xrotation Yrotation
              JOINT RightArm
              {
                OFFSET 13.0012 0 0
                CHANNELS 3 Zrotation Xrotation Yrotation
                JOINT RightForeArm
                {
                  OFFSET 28.7848 1.62311e-005 0
                  CHANNELS 3 Zrotation Xrotation Yrotation
                  JOINT RightHand
                  {
                    OFFSET 26.5688 1.62095e-005 0
                    CHANNELS 3 Zrotation Xrotation Yrotation
                    End Site
                    {
                      OFFSET 0 0 0
                    }
                  }
                }
              }
            }
            JOINT LeftShoulder
            {
              OFFSET 2.38034 -1.29275 -3.7523
              CHANNELS 3 Zrotation Xrotation Yrotation
              JOINT LeftArm
              {
                OFFSET 16.3182 6.07031e-005 0
                CHANNELS 3 Zrotation Xrotation Yrotation
                JOINT LeftForeArm
                {
                  OFFSET 27.0901 0 0
                  CHANNELS 3 Zrotation Xrotation Yrotation
                  JOINT LeftHand
                  {
                    OFFSET 24.5451 1.51738e-005 0
                    CHANNELS 3 Zrotation Xrotation Yrotation
                    End Site
                    {
                      OFFSET 0 0 0
                    }
                  }
                }
              }
            }
            JOINT Neck
            {
              OFFSET 5.0226 -0.0266342 0
              CHANNELS 3 Zrotation Xrotation Yrotation
              JOINT Head
              {
                OFFSET 6.69364 2.86102e-005 0
                CHANNELS 3 Zrotation Xrotation Yrotation
                End Site
                {
                  OFFSET 0 0 0
                }
              }
            }
          }
        }
      }
    }
  }
}
MOTION
Frames:	15
Frame Time:	0.0416667
35.4303 81.3375 -24.4968 75.923 -22.09 83.5658 -166.545 64.6434 96.2705 -72.4817 8.00702 -1.73496 64.2287 4.36065 7.37086 44.2967 19.8666 16.3326 -170.886 39.3106 67.3065 -58.1641 -9.36726 -11.8378 75.7847 -9.78085 -4.95082 59.4414 -4.52366 -9.73586 -0.0155161 9.1987 -90.5227 8.47415 -0.261786 -1.01705 -3.19715 -0.306294 -1.00455 -25.7291 0.0559629 -1.04871 -5.71645 0.0559792 -1.04869 91.7029 -34.8735 -101.492 23.8506 0.966412 1.99292 -0.922952 1.99185 -70.0648 -23.8476 -0.606142 -2.31955 -102.806 -51.1982 61.0131 -21.7246 13.9449 13.7456 4.21816 7.70525 -42.2856 14.1637 1.15327 4.15059 2.37462 23.6306 9.95487 7.02293 23.254 22.9514 
37.6956 80.967 -24.8648 77.0875 -18.8773 84.8078 -163.839 66.4673 95.3995 -73.1499 4.1509 -1.91669 65.0077 4.15035 6.15362 40.2825 17.0853 19.1968 -174.528 35.411 67.7669 -56.6472 -8.96077 -11.6656 77.337 -10.656 -5.19121 60.348 -5.31981 -11.3751 0.122743 9.10886 -90.2559 8.6562 0.131498 -0.51484 -3.01485 0.108697 -0.52013 -25.5494 0.280137 -0.451518 -5.53674 0.280142 -0.451526 91.6101 -35.4572 -101.493 26.3987 -1.33513 1.14141 -5.28612 1.23665 -80.6523 -21.1089 -0.853869 -0.521341 -99.3126 -49.1671 65.2371 -28.7273 16.791 20.2546 6.34773 8.99971 -46.3154 12.9526 1.12964 4.68069 3.97421 22.3175 7.55966 7.26811 22.1553 21.5467 
40.8745 81.278 -25.665 78.0611 -14.5224 87.2869 -160.083 68.3367 94.0053 -74.4136 1.25467 -2.24332 63.7442 1.64845 3.6375 39.039 16.1127 19.9772 -179.857 29.5128 69.3953 -51.765 -8.15868 -11.0055 76.9014 -10.5177 -5.10211 63.0072 -5.4328 -10.8021 0.282979 8.97356 -90.1707 8.92753 0.488585 -0.371701 -2.7434 0.471771 -0.392855 -25.2791 0.577701 -0.207678 -5.26646 0.577729 -0.207675 92.2764 -35.7924 -100.178 29.4422 -4.37968 1.3143 -11.425 -0.162386 -90.3068 -22.9476 -0.727999 -1.54859 -96.0258 -46.8141 69.2882 -36.5139 17.6511 28.5107 8.26947 6.56804 -53.803 13.6829 1.03344 3.58377 6.46542 21.1286 5.51848 6.06173 20.8887 20.1652 
45.4159 82.1815 -27.5473 77.7609 -9.51435 89.6423 -153.406 68.7995 88.782 -75.4949 1.12449 -2.93123 63.4347 1.53481 3.66119 36.3541 13.5939 20.936 173.552 22.5026 69.9123 -43.4535 -10.9687 -9.82442 73.8563 -8.34732 -4.34456 64.4971 -6.11194 -11.833 0.487924 8.59001 -90.1579 9.69538 0.901384 -0.382478 -1.97532 0.883661 -0.421781 -24.513 0.974656 -0.0938733 -4.5003 0.974633 -0.0938861 93.0094 -35.7019 -98.8534 32.0308 -7.49022 3.9163 -13.3229 5.70399 -99.8856 -22.964 -0.923984 -0.505282 -94.4167 -45.3849 71.2837 -43.4203 18.1572 37.7847 8.46798 2.06601 -61.4417 14.212 1.05345 3.46429 5.46115 18.7046 4.00773 6.705 18.8594 18.4577 
50.8159 83.8601 -30.2454 77.5233 -5.59583 93.1257 -150.32 66.9907 87.5578 -75.1094 4.64824 -3.87471 61.3414 1.3015 6.13494 38.4603 15.8841 20.8237 167.6 14.5649 70.5114 -32.8777 -15.1279 -7.70102 65.2634 -3.00301 -1.95403 63.326 -6.90643 -14.0052 0.741465 8.19943 -90.2168 10.4787 1.37753 -0.553027 -1.19164 1.35185 -0.613136 -23.7325 1.48004 -0.113377 -3.7199 1.48003 -0.113383 93.7132 -35.2495 -97.6666 34.7561 -9.87295 6.84808 -17.7427 7.44532 -105.649 -21.3667 -1.22491 1.46971 -92.7842 -43.7028 73.3197 -48.6857 16.0679 44.1085 8.51387 -0.0429443 -65.4665 15.7753 1.10616 3.11208 3.87163 16.2493 2.92587 7.26365 16.5854 15.427 
56.5447 85.755 -33.7339 78.8254 -3.02766 96.8014 -152.124 61.219 91.4032 -72.8128 9.14857 -4.99351 60.5948 0.789328 5.72296 39.0366 17.3463 22.4515 164.254 6.10039 70.9752 -22.2931 -12.787 -5.94166 52.2696 3.42243 2.50704 57.0775 -5.43318 -12.8125 1.01229 8.17912 -90.2895 10.5225 1.88344 -0.743402 -1.14735 1.84891 -0.825601 -23.6933 2.01973 -0.142781 -3.68065 2.01975 -0.142779 94.1033 -34.6324 -97.0844 36.0825 -11.9089 8.88943 -18.6747 7.62167 -105.933 -16.6505 -1.10607 2.54359 -92.561 -42.8979 73.4338 -49.897 11.0474 45.345 6.77461 -0.938719 -65.6559 18.7705 1.21216 2.60166 3.74563 14.1393 2.85383 8.67637 14.3574 11.3638 
61.7984 87.2151 -38.0875 76.2933 0.872023 99.7698 -153.967 56.8481 90.5725 -69.4674 10.3296 -6.15446 63.6567 4.43652 7.80117 44.5359 18.5403 13.4102 165.484 1.86187 73.418 -17.7789 -5.93578 -6.2123 45.8803 5.4489 4.65819 33.6422 -2.34892 -13.7822 1.05511 7.93905 -90.2553 11.0035 1.98226 -0.698888 -0.666181 1.94956 -0.785483 -23.2135 2.10061 -0.0705756 -3.20081 2.10063 -0.0705669 94.1576 -34.1049 -97.1055 36.6137 -14.1315 10.6141 -18.6421 7.35432 -103.798 -20.248 -1.16008 1.4578 -92.8968 -43.4603 73.0677 -47.6108 8.43277 43.1328 3.44853 -2.26177 -65.2138 20.704 1.69383 4.32607 5.85843 12.2894 1.45704 8.02342 12.4394 8.56054 
66.607 87.92 -41.9956 73.3083 4.73264 102.103 -157.019 53.4361 89.9151 -67.002 9.8835 -6.5846 67.9123 8.92155 9.92115 46.0432 19.4039 12.2684 170.008 2.66059 77.6121 -25.5747 0.355556 -6.80837 50.0366 2.48795 2.2692 23.9444 -0.787403 -11.7512 0.984614 7.7037 -90.0437 11.4699 1.93859 -0.28405 -0.199635 1.9242 -0.369131 -22.7462 1.93429 0.311929 -2.73359 1.9343 0.311938 93.8622 -34.539 -97.5585 37.6289 -15.1339 12.8297 -18.2372 6.27624 -95.7476 -18.3083 -1.04868 1.4507 -94.0904 -46.0148 71.9802 -41.2621 6.75073 39.2686 2.03044 -2.59138 -64.8634 23.7734 2.22288 5.60376 6.39402 10.5296 0.996325 9.51098 10.4799 4.33113 
70.7505 87.6361 -45.4059 72.0145 9.81015 103.961 -159.426 50.8624 88.8484 -66.562 13.5633 -6.07469 65.9066 10.3685 15.88 51.31 23.8724 10.9741 175.058 6.91257 82.8049 -41.7781 1.61244 -7.33845 52.5032 1.80169 1.50473 27.0183 -1.13366 -11.2408 0.742 7.80729 -89.8141 11.2587 1.56343 0.215045 -0.411337 1.5714 0.146014 -22.9529 1.42651 0.675078 -2.94025 1.42651 0.675075 93.2412 -35.6511 -98.4397 38.4137 -15.9024 15.0275 -16.4272 0.0412251 -87.4344 -17.0579 -0.877244 0.700243 -96.0717 -48.823 69.8728 -33.5593 5.4823 34.318 1.10298 -3.18831 -66.647 28.8214 2.68448 5.53145 6.1681 8.95257 0.45623 12.5644 8.82148 1.70884 
74.7919 87.6774 -49.0459 71.3504 16.3999 104.575 -162.834 47.3313 87.5212 -67.7311 13.1595 -4.32228 67.8183 8.75509 10.1995 50.5582 23.7641 12.015 177.738 14.1268 86.7714 -59.8505 -0.591488 -6.12047 51.1583 3.04034 2.14748 29.6933 -1.07862 -8.39962 0.324763 8.1862 -89.4863 10.497 0.882867 0.942417 -1.17396 0.923501 0.90264 -23.7075 0.558846 1.16415 -3.6949 0.55884 1.16417 92.65 -37.9876 -98.9328 37.9648 -18.7993 16.361 -12.2901 -1.74126 -76.248 -17.2298 -0.689118 -0.652744 -96.7323 -49.6195 69.1561 -26.4357 3.58701 26.4388 1.05402 -3.3076 -68.6909 33.2836 3.06342 5.41531 6.95283 7.41152 -2.10022 15.63 7.83113 1.54024 
79.003 87.0231 -52.9455 71.3517 22.1927 104.184 -165.521 41.493 85.9061 -66.6869 15.9756 -3.91171 67.1506 9.9854 13.0906 55.5757 27.9285 10.691 178.879 23.6596 89.1865 -76.5741 -3.04976 -4.28705 52.4565 2.62202 1.5826 36.1023 -1.84049 -9.1411 0.0148587 8.56729 -89.2674 9.73442 0.361193 1.42381 -1.93722 0.423505 1.40653 -24.4661 -0.0833641 1.46655 -4.45346 -0.0833606 1.46654 91.8165 -39.011 -100.146 40.6845 -18.0975 21.9462 -11.5703 -3.43942 -68.691 -15.7684 -0.80602 0.650985 -97.8974 -49.9411 67.5649 -20.7874 1.0467 18.0127 3.75626 -2.3303 -74.1206 35.8915 3.76097 6.71475 5.57284 6.21254 -1.58337 19.1728 6.29367 -0.0964762 
83.164 86.5438 -57.3665 68.9341 26.8182 106.202 -168.08 36.7298 85.4509 -64.1923 16.8259 -3.34672 69.825 12.9263 13.3946 55.726 28.2512 10.9355 177.331 37.2388 91.9052 -87.9934 -1.40221 -2.57961 53.1113 2.01079 1.0356 40.2744 -2.76393 -11.5415 -0.302345 8.5551 -89.3087 9.76384 -0.289632 1.39585 -1.90784 -0.227939 1.40724 -24.4383 -0.69574 1.24431 -4.42563 -0.695719 1.24431 91.4537 -40.018 -100.514 43.1134 -20.283 28.9806 -11.0333 -6.5585 -62.2627 -14.1865 -0.714442 0.453514 -96.8637 -48.7153 68.6665 -18.2734 0.177634 9.6174 5.62592 -4.72543 -82.6863 37.9935 3.78236 6.1327 5.15481 5.51269 -1.75487 19.5338 5.47436 -0.989763 
88.3056 86.3953 -62.2226 67.1386 32.2519 109.891 -170.761 30.2805 88.1736 -60.5512 19.9827 -2.33943 70.9072 14.5109 13.8157 58.6955 29.2346 8.17188 172.912 49.0527 97.3988 -93.6186 2.1745 -1.44982 55.5387 0.493121 -0.0731246 38.1018 -2.78227 -12.944 -0.743648 8.52947 -89.6682 9.82039 -1.33183 0.763953 -1.85014 -1.29693 0.821832 -24.3903 -1.49984 0.328301 -4.37765 -1.49985 0.3283 91.067 -40.8486 -100.959 45.3802 -21.4384 37.6023 -11.7311 -9.69892 -58.8764 -12.4072 -0.555055 -0.527051 -94.9474 -46.678 70.8786 -18.8121 -2.18699 4.01709 11.3878 -1.51496 -94.6638 36.6653 4.19451 7.69134 5.43108 5.37471 -1.73763 17.872 5.20759 -1.86779 
94.1319 86.9023 -67.986 66.9434 36.0495 111.574 -172.158 21.3916 91.0152 -53.2512 24.0354 -1.81476 67.1299 9.91498 10.8887 68.164 36.0221 4.96766 168.772 57.4702 101.734 -92.8481 5.61506 -0.658611 58.7572 -0.586159 -0.749756 35.1468 -2.24073 -12.1119 -1.12988 8.48365 -89.9332 9.91096 -2.22155 0.312952 -1.75814 -2.20561 0.410457 -24.3084 -2.21286 -0.369531 -4.2957 -2.21284 -0.369523 90.5059 -41.7311 -101.675 46.6196 -20.5711 47.5762 -13.4913 -10.5236 -60.7098 -10.075 -0.472349 -0.64825 -92.5623 -44.221 73.8201 -20.9345 -2.48993 1.67745 11.6019 -6.24069 -106.106 35.8446 3.50456 5.98179 5.26996 6.0688 -1.87655 16.1061 6.08834 -0.927817 
100.654 88.2996 -74.9145 68.5465 38.5025 111.224 -173.032 9.20957 93.7635 -42.0397 27.7966 -0.908472 62.2648 4.30963 6.82107 64.4517 34.6215 7.82071 169.163 61.2144 101.676 -85.0724 4.48083 0.174769 59.5279 -0.117324 -0.377855 35.6662 -2.55321 -13.4671 -1.34477 8.4677 -90.1434 9.93954 -2.74533 -0.0601454 -1.7285 -2.74533 0.0608327 -24.2852 -2.60025 -0.883015 -4.27253 -2.60026 -0.883014 90.1849 -41.2537 -102.349 47.8766 -18.4271 55.2559 -11.0359 -8.59185 -60.9801 -11.7553 -0.406694 -1.87685 -91.2449 -42.4536 75.4159 -21.9372 -0.448694 2.30586 12.5229 -9.43282 -114.909 34.8968 3.03441 4.89167 3.87224 6.71513 -3.28906 14.8347 7.62453 3.56834 
